# xmcd
#
# Track frame offsets: 
#        150
#        2788
#        15919
#        37020
#        49831
#        66034
#        79185
#        93201
#        102477
#        114725
#        126789
#        141651
#        166231
#        183698
#        198187
#
# Disc length: 2912 seconds
#
# Revision: 0
# Processed by: cddbd v1.5.2PL0 Copyright (c) Steve Scherf et al.
# Submitted via: ExactAudioCopy v0.95b4
#
DISCID=cb0b5e0f
DTITLE=Dennis Yazzie and The Night Breeze Band - Feelin' The Breeze
DYEAR=2003
DGENRE=Native American
TTITLE0=Intro
TTITLE1=Bedroom Battlefield
TTITLE2=Maggie May
TTITLE3=Green River
TTITLE4=Hell To Paradise
TTITLE5=Modern Day Romance
TTITLE6=Speedy Gonzales
TTITLE7=El Mosquito
TTITLE8=Whiskey Bent and Hell Bound
TTITLE9=More Than I Can Say
TTITLE10=Brown-Eyed Girl
TTITLE11=Sultans Of Swing
TTITLE12=Sheep Herder Blues
TTITLE13=Are You Sure Hank Done It This Way?
TTITLE14=Can't You See
EXTD=
EXTT0=
EXTT1=
EXTT2=
EXTT3=
EXTT4=
EXTT5=
EXTT6=
EXTT7=
EXTT8=
EXTT9=
EXTT10=
EXTT11=
EXTT12=
EXTT13=
EXTT14=
PLAYORDER=
